<?xml version="1.0" standalone="no"?><!DOCTYPE svg PUBLIC "-//W3C//DTD SVG 1.1//EN" "http://www.w3.org/Graphics/SVG/1.1/DTD/svg11.dtd"><svg t="1544059534906" class="icon" style="" viewBox="0 0 1024 1024" version="1.1" xmlns="http://www.w3.org/2000/svg" p-id="2963" xmlns:xlink="http://www.w3.org/1999/xlink" width="200" height="200"><defs><style type="text/css"></style></defs><path d="M795.00010453 968.5408288c-3.39683093 0-6.80566827-0.80991253-9.92852586-2.4504768L512.74114667 822.9169888 240.41071467 966.0892608c-7.19097707 3.77995627-15.9035424 3.14905387-22.47562454-1.624192-6.57208213-4.77433707-9.86303467-12.8669152-8.4898944-20.87326293l52.01015147-303.24246614L41.13725013 425.5903872c-5.8167456-5.67048107-7.91029333-14.15273387-5.3997824-21.87855893 2.51051093-7.72582507 9.18847147-13.35592 17.2275648-14.5238528l304.47370774-44.242848L493.60341013 69.04540267c3.59548907-7.2837568 11.0145952-11.89654827 19.13773654-11.89654827 8.12314133 0 15.54224747 4.61170027 19.13773653 11.89654827l136.16466987 275.89972373 304.47370773 44.242848c8.03909333 1.16793387 14.7170528 6.79802773 17.2275648 14.5238528 2.51051093 7.72582507 0.4169632 16.20698667-5.3997824 21.87855893l-220.31918933 214.75786134 52.01015146 303.24246613c1.37314027 8.00634773-1.91890347 16.09892587-8.4898944 20.87326293C803.82837227 967.16550507 799.42515307 968.5408288 795.00010453 968.5408288z" p-id="2964" fill="#f65f26"></path></svg>