<?xml version="1.0" standalone="no"?><!DOCTYPE svg PUBLIC "-//W3C//DTD SVG 1.1//EN" "http://www.w3.org/Graphics/SVG/1.1/DTD/svg11.dtd"><svg t="1544059737314" class="icon" style="" viewBox="0 0 1024 1024" version="1.1" xmlns="http://www.w3.org/2000/svg" p-id="3508" xmlns:xlink="http://www.w3.org/1999/xlink" width="200" height="200"><defs><style type="text/css"></style></defs><path d="M230.91443307 966.4003456c-4.59314347 0-9.1655488-1.42553387-13.0251872-4.23184853-6.8220416-4.95662187-10.24070293-13.35592-8.81516907-21.66898667l51.65867947-301.18821227L41.90786773 426.0084416c-6.03832533-5.88769493-8.2115552-14.69085653-5.60608106-22.71139413 2.6076576-8.0205376 9.5399424-13.86675413 17.88684693-15.0805312l302.40853973-43.9415872L491.839504 70.24389867c3.7319296-7.562096 11.43483307-12.34953173 19.8690592-12.34953174 8.43422613 0 16.1360384 4.78852693 19.8690592 12.34953174l135.2412384 274.0310304 302.41072213 43.9415872c8.34472107 1.21377707 15.27700693 7.0599936 17.88466347 15.0805312 2.60547413 8.0205376 0.43224427 16.82479147-5.60608107 22.71139413L762.68000213 639.31129813l51.65867947 301.18821227c1.42553387 8.31306667-1.99312747 16.71236373-8.81516907 21.66898667-6.82640747 4.95662187-15.8707968 5.60826347-23.33247253 1.68749973L511.70856213 821.6519104 241.22281067 963.8559968C237.980976 965.55877867 234.44224747 966.4003456 230.91443307 966.4003456zM104.9839168 425.6122176L300.006976 615.71030933c5.22077227 5.09088 7.6035744 12.42375573 6.3723328 19.61145814l-46.040592 268.42167466 241.0603776-126.73278826c6.45201387-3.39246507 14.16801493-3.39246507 20.6200288 0l241.05819413 126.73278826-46.040592-268.42167466c-1.2312416-7.1877024 1.15156053-14.52057813 6.3723328-19.61145814l195.021968-190.09809173-269.50992746-39.161792c-7.2182656-1.0489568-13.45524907-5.5820672-16.683984-12.12031147L511.70856213 130.11085867 391.17782827 374.33011413c-3.22764373 6.53824427-9.4657184 11.07135467-16.6818016 12.12031147L104.9839168 425.6122176z" p-id="3509" fill="#444444"></path></svg>