<?xml version="1.0" encoding="utf-8"?>
<!-- Generator: Adobe Illustrator 16.0.0, SVG Export Plug-In . SVG Version: 6.00 Build 0)  -->
<!DOCTYPE svg PUBLIC "-//W3C//DTD SVG 1.1//EN" "http://www.w3.org/Graphics/SVG/1.1/DTD/svg11.dtd">
<svg version="1.1" id="图层_1" xmlns="http://www.w3.org/2000/svg" xmlns:xlink="http://www.w3.org/1999/xlink" x="0px" y="0px"
	 width="612px" height="792px" viewBox="0 0 612 792" enable-background="new 0 0 612 792" xml:space="preserve">
<path fill="#E95E2A" d="M455.375,396.344c1.54,9.714,1.958,19.673,1.958,29.821C457.333,530.473,379.944,608,275.634,608
	C171.326,608,94,530.473,94,426.165c0-104.308,77.326-181.832,181.634-181.832c10.149,0,20.108,0.791,29.824,2.333v-27.139
	c-9.742-1.392-19.698-2.116-29.824-2.116c-115.288,0-208.754,93.466-208.754,208.754s93.466,208.754,208.754,208.754
	s208.754-93.466,208.754-208.754c0-10.125-0.722-20.082-2.116-29.821H455.375z"/>
<polygon fill="#E95E2A" points="365.1,157.767 365.1,184.667 498.003,185.471 319.31,368.434 338.75,387.5 517.25,204.25 
	517.25,336.699 544.032,336.699 544.032,157.767 "/>
<polygon fill="#868686" points="524.151,179.648 522.15,177.647 524.151,177.647 "/>
<path fill="#868686" d="M524.151,179.648"/>
</svg>
