<?xml version="1.0" encoding="utf-8"?>
<!-- Generator: Adobe Illustrator 16.0.0, SVG Export Plug-In . SVG Version: 6.00 Build 0)  -->
<!DOCTYPE svg PUBLIC "-//W3C//DTD SVG 1.1//EN" "http://www.w3.org/Graphics/SVG/1.1/DTD/svg11.dtd">
<svg version="1.1" id="图层_1" xmlns="http://www.w3.org/2000/svg" xmlns:xlink="http://www.w3.org/1999/xlink" x="0px" y="0px"
	 width="200px" height="200px" viewBox="0 0 200 200" enable-background="new 0 0 200 200" xml:space="preserve">
<path fill="#FFFFFF" d="M74.453,153.125c-10.566,0-19.121,8.555-19.121,19.121c0,10.547,8.574,19.141,19.121,19.141
	s19.121-8.574,19.121-19.141C93.555,161.699,85,153.145,74.453,153.125z M74.453,178.633c-3.418-0.156-6.113-2.969-6.113-6.387
	s2.695-6.23,6.113-6.387c3.418,0.156,6.113,2.969,6.113,6.387S77.871,178.477,74.453,178.633z M190.176,109.355
	c9.746-55.762,9.746-55.957,9.746-56.211c-0.02-10.566-8.574-19.121-19.141-19.121H39.648l-2.266-11.855
	C35.02,14.063,27.578,8.477,19.141,8.496H6.387c-1.699,0-3.32,0.664-4.512,1.855S0,13.164,0,14.863c0,3.516,2.852,6.367,6.387,6.367
	h12.734c3.047,0,5.605,2.07,6.23,4.961l18.711,106.094c0.098,0.664,0.547,2.578,0.566,2.656c2.188,7.754,9.004,13.301,17.031,13.906
	h119.082c3.398-0.156,6.074-2.949,6.074-6.367c0-3.398-2.676-6.211-6.074-6.367H62.949c-2.754,0.02-5.215-1.758-6.055-4.375
	l-1.465-8.398h116.426C180.234,123.32,187.734,117.676,190.176,109.355L190.176,109.355z M171.836,110.566H53.184l-11.25-63.809
	h138.848c3.516,0,6.387,2.871,6.387,6.309c-0.156,1.895-5.664,32.891-9.258,53.008C177.09,108.75,174.629,110.566,171.836,110.566z
	 M163.75,153.125c-10.566,0-19.121,8.555-19.121,19.121c0,10.547,8.574,19.141,19.121,19.141s19.121-8.574,19.121-19.141
	S174.316,153.145,163.75,153.125z M163.75,178.633c-3.418-0.156-6.113-2.969-6.113-6.387s2.695-6.23,6.113-6.387
	c3.418,0.156,6.113,2.969,6.113,6.387S167.168,178.477,163.75,178.633z"/>
</svg>
