<?xml version="1.0" encoding="utf-8"?>
<!-- Generator: Adobe Illustrator 16.0.0, SVG Export Plug-In . SVG Version: 6.00 Build 0)  -->
<!DOCTYPE svg PUBLIC "-//W3C//DTD SVG 1.1//EN" "http://www.w3.org/Graphics/SVG/1.1/DTD/svg11.dtd">
<svg version="1.1" id="图层_1" xmlns="http://www.w3.org/2000/svg" xmlns:xlink="http://www.w3.org/1999/xlink" x="0px" y="0px"
	 width="200px" height="200px" viewBox="0 0 200 200" enable-background="new 0 0 200 200" xml:space="preserve">
<path fill="#FFFFFF" d="M173.379,56.641c-2.148,0-1.855,0.137-7.91,4.844s-40.02,31.523-40.02,31.523V61.855
	c0-3.379-2.754-6.133-6.133-6.133H28.125c-3.379,0-6.133,2.754-6.133,6.133v76.328c0,3.379,2.754,6.133,6.133,6.133h91.172
	c3.379,0,6.133-2.754,6.133-6.133v-31.172c0,0,33.965,26.816,40.02,31.523s5.781,4.844,7.91,4.844c2.148,0,3.984-0.352,3.984-6.055
	V100V62.676C177.344,56.992,175.508,56.641,173.379,56.641z"/>
</svg>
