<?xml version="1.0" encoding="utf-8"?>
<!-- Generator: Adobe Illustrator 16.0.0, SVG Export Plug-In . SVG Version: 6.00 Build 0)  -->
<!DOCTYPE svg PUBLIC "-//W3C//DTD SVG 1.1//EN" "http://www.w3.org/Graphics/SVG/1.1/DTD/svg11.dtd">
<svg version="1.1" id="图层_1" xmlns="http://www.w3.org/2000/svg" xmlns:xlink="http://www.w3.org/1999/xlink" x="0px" y="0px"
	 width="200px" height="200px" viewBox="0 0 200 200" enable-background="new 0 0 200 200" xml:space="preserve">
<path fill="#FFFFFF" d="M190.959,4.633c-4.471-3.72-10.338-5.313-16.076-4.366L73.542,15.985
	c-11.686,2.001-20.308,12.013-20.553,23.867v100.513c-14.951-9.992-35.171-5.972-45.163,8.979
	c-9.992,14.951-5.972,35.171,8.979,45.163s35.171,5.972,45.163-8.979c3.579-5.355,5.489-11.651,5.489-18.093V74.997L183.23,57.042
	v64.775c-14.941-10.006-35.166-6.004-45.172,8.938c-10.005,14.941-6.003,35.166,8.939,45.172
	c14.941,10.006,35.166,6.004,45.171-8.938c3.587-5.356,5.503-11.655,5.505-18.103V19.646
	C197.736,13.901,195.283,8.416,190.959,4.633z"/>
</svg>
