<?xml version="1.0" standalone="no"?><!DOCTYPE svg PUBLIC "-//W3C//DTD SVG 1.1//EN" "http://www.w3.org/Graphics/SVG/1.1/DTD/svg11.dtd"><svg t="1541745002981" class="icon" style="" viewBox="0 0 1246 1024" version="1.1" xmlns="http://www.w3.org/2000/svg" p-id="11705" xmlns:xlink="http://www.w3.org/1999/xlink" width="243.359375" height="200"><defs><style type="text/css"></style></defs><path d="M607.365284 313.301884c-32.384897 0-67.363959-21.636409-67.406995-56.593093 0-34.844792 34.989391-56.408902 67.406995-56.408902 33.87736 0 56.63785 22.667534 56.63785 56.405459-0.001721 33.85326-22.762212 56.596536-56.63785 56.596536zM309.859063 313.301884c-32.491624 0-67.561921-21.638131-67.561921-56.596536 0-34.839628 35.070297-56.405459 67.561921-56.405459 33.74309 0 56.441609 22.665813 56.482923 56.400295-0.001721 33.858424-22.700241 56.6017-56.482923 56.6017z" p-id="11706" fill="#3d3d3d"></path><path d="M1106.953053 1024c-3.781939 0-7.567321-0.97604-10.948171-2.824835l-108.812082-59.485063c-41.909461 10.479947-82.970267 19.808271-124.35642 19.808272-161.840134 0-306.306072-87.817759-361.351616-219.064985a22.188982 22.188982 0 0 1-11.879455 4.64953 494.115405 494.115405 0 0 1-41.66502 1.793709c-46.920487 0-84.886197-7.801433-128.84758-16.833673l-16.850888-3.417-141.627331 70.873915a23.232157 23.232157 0 0 1-10.220015 2.41686 22.958452 22.958452 0 0 1-14.952172-5.558435 22.863775 22.863775 0 0 1-6.722108-24.450915l37.22206-111.891686C57.374614 599.531144 0 497.353378 0 384.401304 0 172.44058 200.943696 0 447.938567 0c218.455606 0 412.393161 136.132589 451.11457 316.65347 0.299525 1.389178 0.397646 2.742207 0.394203 4.000558 92.513767 7.951195 179.11621 45.639758 244.188972 106.340137 66.432676 61.969058 103.017814 141.215914 103.017814 223.143007 0 88.755928-51.582067 178.653151-145.300822 253.343433l27.416906 91.172788c2.707779 8.863543-0.227226 18.398436-7.484693 24.277053a22.806968 22.806968 0 0 1-14.332464 5.069554z m-116.654829-109.516139c3.83186 0 7.624127 0.979483 10.965385 2.833442l67.81669 37.105004-15.907554-52.898946c-2.730157-9.097655 0.535359-19.052572 8.121615-24.776262 90.108957-67.744391 139.730337-148.237548 139.730337-226.64952 0-154.840879-154.85465-285.654309-338.150446-285.654309-186.843622 0-338.849338 128.143523-338.849338 285.654309 0 157.533165 152.007437 285.695623 338.849338 285.695623 40.373963 0 81.796265-10.464455 121.853489-20.584627 1.721411-0.473388 3.618405-0.724714 5.570484-0.724714zM447.938567 45.627708c-221.834735 0-402.310859 151.973009-402.310859 338.771874 0 103.792449 53.950728 194.021904 160.354557 268.181993 8.340234 5.847632 11.784777 16.260444 8.582953 25.914114l-25.153251 75.568202 99.457937-49.783193a22.178654 22.178654 0 0 1 14.695682-1.953801l24.294267 4.912905c41.508373 8.570903 77.344697 15.971247 120.116585 15.971247 12.59384 0 25.296128-0.542244 37.752255-1.614683a17.496417 17.496417 0 0 1 2.015772-0.056806c-6.231506-24.277053-9.388573-48.271795-9.388573-71.402388 0-87.537169 39.420302-170.111512 111.001716-232.514366 70.335114-61.316644 163.694093-96.182093 263.303515-98.421648C814.829683 162.948722 641.757345 45.627708 447.938567 45.627708z" p-id="11707" fill="#3d3d3d"></path><path d="M745.601436 600.539891c-23.206336 0-45.98404-22.757047-45.98404-45.942726 0-23.264864 22.775983-46.099374 45.98404-46.099375 34.910206 0 56.519073 23.929328 56.519073 46.099375 0 22.096026-21.608867 45.942726-56.519073 45.942726zM979.294968 600.539891c-23.049687 0-45.670743-22.757047-45.670743-45.942726 0-23.264864 22.622777-46.099374 45.670743-46.099375 35.078904 0 56.792777 23.929328 56.792777 46.099375 0 22.096026-21.713873 45.942726-56.792777 45.942726z" p-id="11708" fill="#3d3d3d"></path></svg>