<?xml version="1.0" standalone="no"?><!DOCTYPE svg PUBLIC "-//W3C//DTD SVG 1.1//EN" "http://www.w3.org/Graphics/SVG/1.1/DTD/svg11.dtd"><svg t="1536742937658" class="icon" style="" viewBox="0 0 1024 1024" version="1.1" xmlns="http://www.w3.org/2000/svg" p-id="1047" xmlns:xlink="http://www.w3.org/1999/xlink" width="128" height="128"><defs><style type="text/css"></style></defs><path fill="#ffffff" d="M299.73052064 548.95130043h121.29968594v60.64652894h-121.29968594v-60.64652894zM117.78430577 185.05887067h121.29968593v60.64652895H117.78430577v-60.64652895zM299.73052064 185.05887067h121.29968594v60.64652895h-121.29968594v-60.64652895zM299.73052064 367.00508555h121.29968594v60.64652895h-121.29968594v-60.64652895zM117.78430577 367.00508555h121.29968593v60.64652895H117.78430577v-60.64652895zM784.9160083 548.95130043h121.29968593v60.64652894h-121.29968593v-60.64652894zM784.9160083 730.89751531h121.29968593v60.64652895h-121.29968593v-60.64652895z" p-id="1048"></path><path fill="#ffffff" d="M966.86222319 306.3585566h-242.59274383a60.62664484 60.62664484 0 0 0-60.64652896 60.64652895v606.48517359c0 33.45832548 27.18820347 60.64652895 60.64652896 60.64652895h242.59274383c33.45832548 0 60.64652895-27.18820347 60.64652895-60.64652895V367.00508555c0.00662803-33.45832548-27.18157543-60.64652895-60.64652895-60.64652895z m0 667.13170254h-242.59274383V367.00508555h242.59274383v606.48517359zM117.78430577 548.95130043h121.29968593v60.64652894H117.78430577v-60.64652894z" p-id="1049"></path><path fill="#ffffff" d="M481.67673552 3.11265578H57.13777681c-33.45832548 0-60.64652895 27.18820347-60.64652895 60.64652895v909.72444637c0 33.45832548 27.18820347 60.64652895 60.64652895 60.64652895h424.53895871c33.45832548 0 60.64652895-27.18820347 60.64652896-60.64652895V63.76581277c0-33.46495351-27.18820347-60.65315698-60.64652896-60.65315699z m0 970.37760336H57.13777681V63.76581277h424.53895871v909.72444637z" p-id="1050"></path></svg>