<?xml version="1.0" standalone="no"?><!DOCTYPE svg PUBLIC "-//W3C//DTD SVG 1.1//EN" "http://www.w3.org/Graphics/SVG/1.1/DTD/svg11.dtd"><svg t="1536742934367" class="icon" style="" viewBox="0 0 1024 1024" version="1.1" xmlns="http://www.w3.org/2000/svg" p-id="914" xmlns:xlink="http://www.w3.org/1999/xlink" width="128" height="128"><defs><style type="text/css"></style></defs><path d="M189.64491734 8.50638608c-81.03565819 17.57758748-162.81613086 99.35805857-180.39371833 180.39371834-33.6655491 155.8148872 84.01491143 293.45633689 234.02025657 293.45633688l239.82979863 0 0-10.12945669 0-49.45558651L483.10125421 232.24822309l-0.29792577 0C476.84482505 87.3076055 342.03366415-24.41435011 189.64491734 8.50638608zM423.51621101 422.7713981l-180.24475543 0c-100.40079731 0-181.58541839-82.07839691-180.24475543-182.77712 1.34066295-97.12361982 80.58877105-176.37172794 177.71239087-177.71239086 100.6987231-1.34066295 182.77712001 79.84395813 182.77711999 180.24475543L423.51621101 422.7713981z" fill="#ffffff" p-id="915"></path><path d="M1015.79153971 188.90010442c-17.57758748-81.03565819-99.35805857-162.81613086-180.39371833-180.39371834-152.23978547-32.92073619-287.19990771 78.80121942-293.15841267 223.8907999l-0.29792577 0 0 190.37421212 0 49.45558651 0 10.12945669 239.82979863 0C931.62766538 482.3564413 1049.45708884 344.71499161 1015.79153971 188.90010442zM601.5265277 242.52664267c0-100.40079731 82.07839691-181.58541839 182.77712-180.24475543 97.12361982 1.34066295 176.37172794 80.58877105 177.71239087 177.71239086 1.34066295 100.6987231-79.84395813 182.77712001-180.24475542 182.77712l-180.24475545 0L601.5265277 242.52664267z" fill="#ffffff" p-id="916"></path><path d="M9.25119901 835.39782138c17.57758748 81.03565819 99.35805857 162.81613086 180.39371833 180.39371833 152.23978547 32.92073619 287.19990771-78.80121942 293.15841267-223.8907999l0.29792579 0L483.10125421 601.5265277l0-49.45558653 0-10.12945667-239.82979863 0C93.26611044 541.9414845-24.41435011 679.58293419 9.25119901 835.39782138zM423.51621101 781.77128315c0 100.40079731-82.07839691 181.58541839-182.77711999 180.24475542-97.12361982-1.34066295-176.37172794-80.58877105-177.71239087-177.71239087-1.34066295-100.6987231 79.84395813-182.77712001 180.24475543-182.77712l180.24475543 0L423.51621101 781.77128315z" fill="#ffffff" p-id="917"></path><path d="M781.77128315 541.9414845l-239.82979865 0 0 10.12945667 0 49.45558653 0 190.37421211 0.29792579 0c6.10746627 145.08958048 140.91862718 256.81153609 293.15841266 223.8907999 81.03565819-17.57758748 162.81613086-99.35805857 180.39371834-180.39371833C1049.45708884 679.58293419 931.62766538 541.9414845 781.77128315 541.9414845zM962.01603857 784.30364611C960.67537404 881.42726752 881.42726752 960.67537404 784.30364611 962.01603857c-100.6987231 1.34066295-182.77712001-79.84395813-182.77711999-180.24475542l0-180.24475545 180.24475545 0C882.17208043 601.5265277 963.35670151 683.60492459 962.01603857 784.30364611z" fill="#ffffff" p-id="918"></path></svg>