<?xml version="1.0" standalone="no"?><!DOCTYPE svg PUBLIC "-//W3C//DTD SVG 1.1//EN" "http://www.w3.org/Graphics/SVG/1.1/DTD/svg11.dtd"><svg t="1536721292252" class="icon" style="" viewBox="0 0 1024 1024" version="1.1" xmlns="http://www.w3.org/2000/svg" p-id="1086" xmlns:xlink="http://www.w3.org/1999/xlink" width="128" height="128"><defs><style type="text/css"></style></defs><path d="M904.696 0H794.968a30.816 30.816 0 0 0-30.824 30.824 30.8 30.8 0 0 0 30.824 30.816h109.728c31.424 0 56.976 25.584 56.976 57v113.432a30.8 30.8 0 0 0 30.824 30.816 30.8 30.8 0 0 0 30.816-30.816V118.64C1023.304 53.208 970.096 0 904.696 0zM31.512 262.888a30.824 30.824 0 0 0 30.816-30.816V118.64c0-31.424 25.552-57 56.976-57h112.896A30.824 30.824 0 0 0 232.192 0H119.304C53.904 0 0.688 53.208 0.688 118.64v113.432a30.816 30.816 0 0 0 30.824 30.816zM232.192 962.36H119.304c-31.416 0-56.976-25.576-56.976-57V797.072a30.824 30.824 0 0 0-61.64 0v108.288c0 65.432 53.208 118.64 118.608 118.64h112.896a30.8 30.8 0 0 0 30.816-30.824 30.8 30.8 0 0 0-30.816-30.816zM992.496 766.256a30.8 30.8 0 0 0-30.824 30.816v108.288c0 31.424-25.552 57-56.976 57H794.968a30.808 30.808 0 0 0-30.824 30.824 30.8 30.8 0 0 0 30.824 30.824h109.728c65.4 0 118.608-53.208 118.608-118.64V797.072a30.8 30.8 0 0 0-30.808-30.816zM1.896 512a30.832 30.832 0 0 0 30.824 30.824h958.576A30.8 30.8 0 0 0 1022.112 512a30.8 30.8 0 0 0-30.816-30.824H32.712A30.824 30.824 0 0 0 1.896 512z" fill="#ffffff" p-id="1087"></path></svg>