<?xml version="1.0" standalone="no"?><!DOCTYPE svg PUBLIC "-//W3C//DTD SVG 1.1//EN" "http://www.w3.org/Graphics/SVG/1.1/DTD/svg11.dtd"><svg t="1536721271231" class="icon" style="" viewBox="0 0 1029 1024" version="1.1" xmlns="http://www.w3.org/2000/svg" p-id="822" xmlns:xlink="http://www.w3.org/1999/xlink" width="128.625" height="128"><defs><style type="text/css"></style></defs><path d="M514.816 993.536c-124.416 0-514.56-265.984-514.56-640a272.384 272.384 0 0 1 514.56-125.952 272.384 272.384 0 0 1 514.304 124.928 551.424 551.424 0 0 1-13.824 121.856 30.72 30.72 0 1 1-59.904-13.568 491.008 491.008 0 0 0 12.288-108.288 211.2 211.2 0 1 0-422.144 0 30.72 30.72 0 1 1-61.44 0 211.2 211.2 0 1 0-422.144 0c0 346.624 375.04 579.584 452.864 579.584 23.808 0 90.624-24.064 177.408-89.856a30.72 30.72 0 1 1 37.12 48.896c-81.92 61.952-166.144 102.4-214.528 102.4z" fill="#333333" p-id="823"></path><path d="M883.712 689.408m-30.72 0a30.72 30.72 0 1 0 61.44 0 30.72 30.72 0 1 0-61.44 0Z" fill="#333333" p-id="824"></path><path d="M804.352 783.104m-30.72 0a30.72 30.72 0 1 0 61.44 0 30.72 30.72 0 1 0-61.44 0Z" fill="#333333" p-id="825"></path><path d="M946.688 584.192m-30.72 0a30.72 30.72 0 1 0 61.44 0 30.72 30.72 0 1 0-61.44 0Z" fill="#333333" p-id="826"></path></svg>