<?xml version="1.0" encoding="utf-8"?>
<!-- Generator: Adobe Illustrator 16.0.0, SVG Export Plug-In . SVG Version: 6.00 Build 0)  -->
<!DOCTYPE svg PUBLIC "-//W3C//DTD SVG 1.1//EN" "http://www.w3.org/Graphics/SVG/1.1/DTD/svg11.dtd">
<svg version="1.1" id="图层_1" xmlns="http://www.w3.org/2000/svg" xmlns:xlink="http://www.w3.org/1999/xlink" x="0px" y="0px"
	 width="200px" height="200px" viewBox="0 0 200 200" enable-background="new 0 0 200 200" xml:space="preserve">
<path d="M85.4,88.462H16.487c-2.212,0-3.987-1.788-3.987-3.987V16.612c0-2.2,1.775-3.987,3.987-3.987H85.4
	c2.2,0,3.988,1.8,3.988,3.987v67.863C89.388,86.675,87.6,88.462,85.4,88.462z M16.39,84.5h69.12V16.6H16.39V84.5z M85.4,181.063
	H16.487c-2.212,0-3.987-1.787-3.987-3.987V109.25c0-2.225,1.775-4,3.987-4H85.4c2.2,0,3.988,1.787,3.988,4v67.825
	C89.388,179.275,87.6,181.063,85.4,181.063z M16.489,177h68.922v-67.662H16.489V177z M176.775,88.462h-68.9c-2.225,0-4-1.8-4-3.987
	V16.612c0-2.2,1.787-3.987,4-3.987h68.9c2.212,0,3.987,1.8,3.987,3.987v67.863C180.763,86.675,178.975,88.462,176.775,88.462z
	 M107.875,84.394h68.875V16.707h-68.875V84.394z M140.025,181.537c-21.976,0-39.851-17.887-39.851-39.824
	c0-22,17.875-39.851,39.851-39.851c21.949,0,39.824,17.862,39.824,39.851C179.85,163.662,161.975,181.537,140.025,181.537z
	 M140.026,106.328c-19.526,0-35.386,15.901-35.386,35.399c0,19.442,15.859,35.344,35.386,35.344
	c19.471,0,35.357-15.901,35.357-35.344C175.384,122.229,159.497,106.328,140.026,106.328z M183.487,187.375
	c-1.019,0-2.001-0.384-2.75-1.075l-17.725-16.787c-1.601-1.5-1.675-4.063-0.175-5.638c1.537-1.625,4.074-1.7,5.649-0.162
	l17.75,16.75c1.612,1.537,1.675,4.087,0.175,5.688C185.638,186.963,184.588,187.375,183.487,187.375L183.487,187.375z"/>
</svg>
