<?xml version="1.0" standalone="no"?><!DOCTYPE svg PUBLIC "-//W3C//DTD SVG 1.1//EN" "http://www.w3.org/Graphics/SVG/1.1/DTD/svg11.dtd"><svg t="1540385497821" class="icon" style="" viewBox="0 0 1024 1024" version="1.1" xmlns="http://www.w3.org/2000/svg" p-id="5637" xlink="http://www.w3.org/1999/xlink" width="200" height="200"><defs><style type="text/css"></style></defs><path d="M376.938 83.658H153.682c-20.62 0-39.4 8.47-53.065 22.058-13.604 13.604-22.058 32.399-22.058 53.072v223.256c0 20.608 8.47 39.394 22.058 53.06 13.603 13.603 32.398 22.057 53.065 22.057h223.256c20.594 0 39.374-8.452 52.99-22.057l0.07-0.07c13.604-13.617 22.058-32.397 22.058-52.99V158.787c0-20.673-8.453-39.468-22.094-53.035-13.629-13.626-32.417-22.095-53.024-22.095z m38.782 298.386c0 10.689-4.349 20.389-11.336 27.377l-0.07 0.07c-6.987 6.986-16.687 11.339-27.376 11.339H153.682c-10.643 0-20.348-4.376-27.45-11.408a38.641 38.641 0 0 1-11.336-27.377V158.788c0-10.648 4.372-20.356 11.406-27.456 6.987-6.987 16.687-11.34 27.381-11.34H376.94a38.43 38.43 0 0 1 27.376 11.407c7.033 7.032 11.406 16.74 11.406 27.39v223.255zM618.372 457.161h223.253c20.67 0 39.464-8.452 53.031-22.094 13.625-13.629 22.094-32.415 22.094-53.023V158.788c0-20.673-8.452-39.468-22.094-53.035-13.628-13.626-32.415-22.095-53.03-22.095H618.371c-20.624 0-39.403 8.47-53.068 22.058-13.604 13.604-22.057 32.399-22.057 53.072v223.256c0 20.608 8.469 39.394 22.057 53.06 13.604 13.605 32.399 22.057 53.068 22.057z m-38.79-298.373c0-10.648 4.373-20.356 11.406-27.456 6.987-6.987 16.687-11.34 27.384-11.34h223.253A38.43 38.43 0 0 1 869.01 131.4c7.032 7.032 11.406 16.74 11.406 27.39v223.255a38.417 38.417 0 0 1-11.406 27.377c-7.032 7.032-16.74 11.408-27.384 11.408H618.372c-10.647 0-20.352-4.376-27.454-11.408a38.641 38.641 0 0 1-11.336-27.377V158.788zM376.938 565.41H153.682c-20.604 0-39.379 8.453-52.996 22.058l-0.07 0.066c-13.611 13.629-22.057 32.4-22.057 53v223.255c0 20.669 8.453 39.46 22.094 53.028 13.629 13.628 32.408 22.097 53.028 22.097h223.256c20.607 0 39.394-8.469 53.06-22.057 13.603-13.607 22.057-32.4 22.057-53.068V640.532c0-20.665-8.453-39.46-22.095-53.027-13.626-13.629-32.414-22.095-53.021-22.095z m38.782 298.378c0 10.644-4.372 20.352-11.406 27.45-6.987 6.987-16.687 11.34-27.376 11.34H153.682a38.429 38.429 0 0 1-27.381-11.406c-7.033-7.032-11.406-16.74-11.406-27.384V640.532a38.64 38.64 0 0 1 11.336-27.381l0.07-0.07c6.987-6.987 16.687-11.34 27.381-11.34h223.256a38.423 38.423 0 0 1 27.376 11.409c7.033 7.032 11.406 16.738 11.406 27.381v223.257zM937.373 892.372l-51.672-34.567c20.497-30.126 32.49-66.495 32.49-105.64 0-51.964-21.074-99.017-55.165-133.031-34.084-34.075-81.137-55.167-133.032-55.167-51.911 0-98.94 21.084-133.07 55.127-34.054 34.055-55.127 81.116-55.127 133.072 0 51.908 21.082 98.94 55.127 133l0.067 0.07c34.061 34.043 81.092 55.127 133.003 55.127 51.63 0 98.42-20.818 132.42-54.562l54.805 36.668c8.31 5.558 19.563 3.339 25.124-4.973 5.559-8.309 3.34-19.563-4.97-25.124z m-207.38 11.656c-41.96 0-79.95-16.997-107.417-44.448-27.45-27.466-44.447-65.453-44.447-107.415 0-41.934 17.004-79.914 44.447-107.418 27.467-27.45 65.457-44.447 107.418-44.447 41.977 0 79.959 16.973 107.386 44.44 27.474 27.51 44.479 65.486 44.479 107.425 0 41.96-16.996 79.948-44.48 107.386-27.471 27.475-65.453 44.477-107.385 44.477z" p-id="5638"></path></svg>