<?xml version="1.0" encoding="utf-8"?>
<!-- Generator: Adobe Illustrator 16.0.0, SVG Export Plug-In . SVG Version: 6.00 Build 0)  -->
<!DOCTYPE svg PUBLIC "-//W3C//DTD SVG 1.1//EN" "http://www.w3.org/Graphics/SVG/1.1/DTD/svg11.dtd">
<svg version="1.1" id="图层_1" xmlns="http://www.w3.org/2000/svg" xmlns:xlink="http://www.w3.org/1999/xlink" x="0px" y="0px"
	 width="200px" height="200px" viewBox="0 0 200 200" enable-background="new 0 0 200 200" xml:space="preserve">
<path d="M179.743,187.969H27.865c-3.139,0-6.279-1.569-8.241-3.924c-1.962-2.747-2.747-5.887-1.962-9.026
	c7.849-40.03,40.422-69.855,79.667-72.995c1.569-0.393,2.747-0.393,4.709-0.393v3.924c-1.57,0-2.748,0-4.317,0.393
	c-37.675,2.747-69.071,31.396-76.527,69.856c-0.393,1.962,0,4.316,1.57,5.887c1.177,1.569,3.139,2.354,5.102,2.354h151.878
	c1.962,0,3.924-0.785,5.102-2.354c1.177-1.57,1.962-3.532,1.569-5.887c-4.709-25.117-20.016-46.702-41.6-58.867
	c-2.354-1.57-5.102-2.748-7.456-3.925l1.569-3.532c2.748,1.178,5.494,2.747,7.849,3.925c22.763,12.95,38.46,35.32,43.563,61.614
	c0.784,3.14,0,6.279-2.355,9.026C186.021,186.399,182.883,187.969,179.743,187.969L179.743,187.969z M103.215,105.555h-0.784v-3.924
	h1.177L103.215,105.555z"/>
<path d="M104.8,104.8c-25.2,0-46-20.8-46-46c0-25.2,20.8-46,46-46c25.2,0,46,20.8,46,46C150.8,84,130,104.8,104.8,104.8z
	 M104.8,17.384c-22.877,0-41.416,18.539-41.416,41.416c0,22.877,18.539,41.416,41.416,41.416s41.416-18.539,41.416-41.416
	C146.216,35.923,127.677,17.384,104.8,17.384z"/>
</svg>
