<?xml version="1.0" standalone="no"?><!DOCTYPE svg PUBLIC "-//W3C//DTD SVG 1.1//EN" "http://www.w3.org/Graphics/SVG/1.1/DTD/svg11.dtd"><svg t="1540385693336" class="icon" style="" viewBox="0 0 1024 1024" version="1.1" xmlns="http://www.w3.org/2000/svg" p-id="7036" xlink="http://www.w3.org/1999/xlink" width="200" height="200"><defs><style type="text/css"></style></defs><path d="M890.720703125 392.029296875c-8.349609375 0-15.1171875-6.767578125-15.1171875-15.1171875V147.869140625H646.560546875c-8.349609375 0-15.1171875-6.767578125-15.1171875-15.1171875s6.767578125-15.1171875 15.1171875-15.1171875h244.16015625c8.349609375 0 15.1171875 6.767578125 15.1171875 15.1171875v244.16015625c0 8.349609375-6.767578125 15.1171875-15.1171875 15.1171875zM133.455078125 392.029296875c-8.349609375 0-15.1171875-6.767578125-15.1171875-15.1171875V132.6640625c0-8.349609375 6.767578125-15.1171875 15.1171875-15.1171875h244.16015625c8.349609375 0 15.1171875 6.767578125 15.1171875 15.1171875s-6.767578125 15.1171875-15.1171875 15.1171875H148.66015625v229.04296875000003c0 8.4375-6.767578125 15.205078125-15.205078125 15.205078125zM890.720703125 905.046875H646.560546875c-8.349609375 0-15.1171875-6.767578125-15.1171875-15.1171875s6.767578125-15.1171875 15.1171875-15.1171875h229.04296875000003V645.76953125c0-8.349609375 6.767578125-15.1171875 15.1171875-15.1171875s15.1171875 6.767578125 15.1171875 15.1171875V889.9296875c0 8.349609375-6.767578125 15.1171875-15.1171875 15.1171875zM377.615234375 905.046875H133.455078125c-8.349609375 0-15.1171875-6.767578125-15.1171875-15.1171875V645.76953125c0-8.349609375 6.767578125-15.1171875 15.1171875-15.1171875s15.1171875 6.767578125 15.1171875 15.1171875v229.04296875000003h229.04296875000003c8.349609375 0 15.1171875 6.767578125 15.1171875 15.1171875s-6.767578125 15.1171875-15.1171875 15.1171875z" p-id="7037"></path><path d="M707.205078125 515.955078125H298.337890625c-8.349609375 0-15.1171875-6.767578125-15.1171875-15.1171875s6.767578125-15.1171875 15.1171875-15.1171875H707.1171875c8.349609375 0 15.1171875 6.767578125 15.1171875 15.1171875 0.087890625 8.349609375-6.6796875 15.1171875-15.029296875 15.1171875z" p-id="7038"></path></svg>